<svg width="24" height="24" viewBox="0 0 24 24" fill="none" xmlns="http://www.w3.org/2000/svg">
<path d="M18.75 9.3125C18.75 14.375 12 19.4375 12 19.4375C12 19.4375 5.25 14.375 5.25 9.3125C5.25 7.52229 5.96116 5.8054 7.22703 4.53953C8.4929 3.27366 10.2098 2.5625 12 2.5625C13.7902 2.5625 15.5071 3.27366 16.773 4.53953C18.0388 5.8054 18.75 7.52229 18.75 9.3125Z" stroke="#FDD947" stroke-width="2" stroke-linecap="round" stroke-linejoin="round"/>
<path d="M12 10.25C13.2426 10.25 14.25 9.24264 14.25 8C14.25 6.75736 13.2426 5.75 12 5.75C10.7574 5.75 9.75 6.75736 9.75 8C9.75 9.24264 10.7574 10.25 12 10.25Z" stroke="#FDD947" stroke-width="2" stroke-linecap="round" stroke-linejoin="round"/>
</svg>
